<?xml version="1.0" standalone="no"?>
<!DOCTYPE svg PUBLIC "-//W3C//DTD SVG 20010904//EN"
 "http://www.w3.org/TR/2001/REC-SVG-20010904/DTD/svg10.dtd">
<svg version="1.0" xmlns="http://www.w3.org/2000/svg"
 width="712.000000pt" height="712.000000pt" viewBox="0 0 712.000000 712.000000"
 preserveAspectRatio="xMidYMid meet">
<metadata>
Created by potrace 1.14, written by Peter Selinger 2001-2017
</metadata>
<g transform="translate(0.000000,712.000000) scale(0.100000,-0.100000)"
fill="#000000" stroke="none">
<path d="M3111 6799 c-728 -56 -1395 -364 -1917 -886 -255 -255 -441 -517
-599 -845 -149 -310 -235 -603 -281 -963 -28 -216 -22 -645 12 -817 5 -23 -2
-31 -54 -67 -161 -109 -240 -267 -230 -456 8 -142 60 -206 211 -259 16 -5 13
-12 -27 -57 -66 -73 -126 -198 -126 -261 0 -41 5 -54 29 -79 41 -40 86 -38
238 12 68 23 125 40 127 38 12 -12 75 -183 70 -190 -3 -5 -14 -9 -24 -9 -11 0
-45 -10 -77 -22 -76 -28 -163 -113 -186 -182 -25 -73 -22 -163 6 -217 40 -75
87 -103 304 -179 94 -33 103 -45 103 -143 1 -175 28 -275 95 -340 70 -68 177
-84 316 -47 l74 19 39 -47 c170 -204 424 -355 726 -432 578 -147 1341 -76
2170 204 135 46 252 86 261 90 12 5 18 -3 28 -36 62 -206 299 -340 506 -284
125 33 231 122 286 239 30 64 34 82 34 157 0 75 -3 90 -28 133 -19 32 -44 56
-79 76 l-51 29 82 41 c123 62 357 201 533 317 576 378 966 778 1137 1169 115
261 140 532 70 762 l-22 71 41 49 c136 164 160 380 58 532 l-34 50 36 7 c81
15 122 53 122 115 0 111 -100 248 -261 357 l-47 32 9 42 c28 122 -61 372 -178
498 -57 62 -135 109 -228 136 -66 19 -218 24 -321 11 l-60 -8 -17 54 c-31 97
-182 327 -338 513 -624 741 -1582 1147 -2538 1073z m466 -130 c805 -68 1541
-465 2034 -1099 101 -129 198 -277 238 -360 31 -66 36 -86 39 -172 7 -170 -39
-267 -253 -538 -89 -113 -144 -155 -398 -307 -552 -329 -1228 -588 -1844 -707
-284 -55 -444 -70 -773 -70 -330 -1 -473 11 -682 59 -449 101 -773 460 -829
918 -19 156 3 453 52 698 44 222 126 473 224 683 24 53 40 96 36 96 -13 0
-221 -233 -302 -338 -473 -617 -690 -1416 -593 -2193 18 -150 43 -228 98 -311
24 -38 40 -68 35 -68 -22 0 -128 123 -156 181 -103 209 -109 809 -13 1239 239
1075 1060 1932 2115 2206 319 83 645 111 972 83z m2839 -1662 c28 -14 65 -37
82 -52 83 -70 164 -251 166 -372 1 -69 0 -73 -34 -109 -67 -70 -183 -110 -560
-189 -331 -70 -410 -95 -468 -149 -54 -48 -66 -122 -37 -226 39 -140 28 -295
-29 -424 -84 -189 -212 -229 -561 -176 -183 29 -271 29 -321 3 -87 -45 -102
-116 -59 -294 68 -284 6 -518 -167 -631 -77 -51 -137 -68 -237 -68 -110 0
-182 20 -426 117 -277 110 -320 124 -411 130 -143 10 -250 -45 -351 -180 -154
-203 -339 -300 -543 -283 -177 15 -281 68 -443 226 -64 63 -132 122 -150 132
-19 10 -55 17 -88 18 -93 0 -139 -31 -328 -220 -183 -185 -233 -220 -350 -246
-124 -28 -255 4 -282 68 -16 38 -7 128 21 203 12 33 30 95 41 138 24 92 16
137 -31 182 -31 29 -33 30 -138 30 -59 0 -177 -3 -262 -5 -143 -5 -159 -3
-202 17 -61 28 -78 61 -78 155 0 60 5 84 29 134 30 64 83 130 132 165 l28 19
31 -57 c78 -147 206 -246 401 -311 170 -56 328 -96 424 -108 17 -2 75 -11 130
-19 192 -28 473 -46 630 -39 236 9 557 46 685 79 30 8 98 23 150 35 666 143
1261 394 1908 805 278 176 459 322 695 559 191 191 270 280 407 461 170 224
205 306 210 492 0 17 54 21 205 18 117 -2 135 -5 181 -28z m400 -708 c68 -52
144 -150 144 -187 0 -5 -46 -14 -102 -21 -366 -44 -685 -136 -1025 -297 l-113
-53 0 32 c0 18 -9 72 -20 121 -29 130 -28 142 18 165 53 27 120 45 342 91 397
83 532 126 635 204 23 17 30 14 121 -55z m-19 -388 c77 -56 107 -124 101 -230
-8 -156 -109 -275 -325 -383 -199 -99 -207 -115 -208 -408 -1 -166 -3 -200
-18 -228 -38 -70 -99 -88 -361 -103 -325 -18 -461 -63 -587 -190 -37 -38 -121
-137 -187 -221 -121 -155 -199 -237 -262 -275 -53 -32 -152 -54 -228 -51 l-67
3 -8 55 c-16 100 10 459 34 473 2 1 94 46 204 101 436 214 943 518 1270 760
247 183 382 382 428 632 l13 69 50 12 c80 18 107 16 151 -16z m-1923 -722 l75
-11 -39 -47 c-21 -25 -65 -85 -97 -133 l-59 -86 -18 81 c-10 45 -23 103 -29
128 -15 66 -7 79 47 79 25 0 79 -5 120 -11z m1900 -121 l9 -75 -46 -96 c-85
-180 -203 -342 -382 -526 -255 -263 -540 -481 -950 -727 -174 -104 -590 -324
-613 -324 -8 0 -12 18 -12 48 0 26 -9 79 -21 117 -37 125 -43 111 58 124 371
49 532 155 772 515 137 204 175 229 386 246 138 12 217 26 260 47 53 27 159
100 187 130 33 35 64 104 72 163 4 25 18 81 30 125 13 44 31 110 41 146 9 36
26 77 38 92 21 27 132 80 152 73 6 -1 14 -36 19 -78z m-6018 -585 c-2 -10 -10
-37 -17 -60 -9 -33 -17 -42 -40 -47 -15 -3 -122 -40 -239 -82 -116 -42 -213
-74 -216 -71 -18 17 87 162 162 223 45 37 51 39 138 45 191 12 218 11 212 -8z
m5839 -80 c-283 -465 -897 -948 -1722 -1354 -111 -54 -212 -99 -226 -99 -28 0
-87 19 -87 28 0 4 55 31 123 61 474 209 1000 524 1367 821 206 167 445 418
553 581 50 75 44 48 -8 -38z m-3187 22 c35 -8 137 -45 225 -81 350 -143 490
-178 631 -156 86 13 169 43 221 78 21 14 39 24 40 22 1 -2 -2 -34 -7 -73 -14
-98 -4 -395 16 -474 9 -35 37 -116 63 -180 32 -82 47 -135 51 -183 4 -61 3
-68 -21 -92 -57 -57 -195 -13 -285 91 -57 67 -116 103 -166 103 -49 0 -62 -8
-168 -101 -126 -111 -192 -143 -333 -158 -248 -28 -374 57 -657 444 -80 111
-173 234 -207 275 l-60 74 57 28 c86 42 181 118 241 194 106 134 151 173 221
195 38 11 69 10 138 -6z m-2720 -652 c226 -305 573 -440 970 -378 413 65 738
133 1071 226 58 16 110 29 117 29 10 0 166 -201 160 -207 -1 -1 -22 3 -46 8
-25 6 -86 9 -136 7 -73 -3 -101 -9 -145 -31 -73 -35 -141 -103 -186 -186 -59
-108 -86 -143 -132 -173 -95 -60 -191 -26 -274 98 -55 84 -100 128 -149 148
-85 36 -148 15 -382 -123 -273 -162 -469 -243 -586 -245 -108 -1 -140 52 -140
233 0 126 -11 170 -52 217 -41 47 -94 76 -208 113 -159 52 -188 80 -176 166
11 68 60 119 140 144 94 30 97 29 154 -46z m3560 -492 c18 -22 61 -59 97 -83
l66 -43 -39 -17 c-166 -70 -628 -211 -844 -257 -363 -78 -654 -79 -763 -3 -45
31 -85 100 -85 147 1 77 84 154 193 177 71 15 168 1 236 -35 282 -149 351
-172 507 -172 179 1 361 90 509 248 39 41 75 75 81 76 6 0 25 -17 42 -38z
m-2862 -382 c32 -35 146 -115 224 -158 593 -319 1614 -263 2708 147 87 33 90
32 68 -27 -14 -38 -13 -38 -281 -130 -408 -141 -811 -231 -1195 -267 -202 -20
-573 -14 -724 10 -234 38 -448 111 -603 208 -96 59 -260 209 -249 227 11 17
31 13 52 -10z m3646 -49 c48 -14 68 -43 68 -100 0 -103 -65 -206 -164 -258
-73 -38 -178 -38 -258 1 -101 50 -159 137 -165 252 -6 97 1 104 74 81 75 -24
161 -23 243 2 105 33 146 37 202 22z"/>
<path d="M4830 5691 c-32 -61 37 -123 84 -75 19 18 21 65 4 82 -20 20 -76 15
-88 -7z"/>
<path d="M4390 5161 c-23 -43 2 -91 47 -91 42 0 71 68 41 98 -20 20 -76 15
-88 -7z"/>
<path d="M5437 5112 c-34 -38 -8 -92 44 -92 33 0 49 18 49 55 0 17 -5 36 -12
43 -18 18 -63 14 -81 -6z"/>
<path d="M2887 4622 c-34 -38 -8 -92 44 -92 34 0 49 18 49 57 0 50 -59 72 -93
35z"/>
<path d="M4317 4232 c-25 -27 -21 -69 7 -87 57 -37 118 43 68 88 -24 22 -55
21 -75 -1z"/>
<path d="M1895 4030 c-35 -39 6 -99 59 -86 16 4 31 17 37 33 22 58 -54 100
-96 53z"/>
</g>
</svg>
